<svg id="Capa_1" data-name="Capa 1" xmlns="http://www.w3.org/2000/svg" viewBox="0 0 572.11 181.54"><defs><style>.cls-1{fill:#fff;}.cls-2{fill:#81d0d6;}.cls-3{fill:#f66;}</style></defs><path class="cls-1" d="M63.93,136.38,62.68,94.94l-4.76,41.44H40.25L35.5,94.94,34,136.38H18.55l2.24-61.89H45.55l4.21,37.13L54,74.49H78.65L81,136.38Z" transform="translate(-18.55 -14.63)"/><path class="cls-1" d="M85.82,136.38V74.49h35V88.57H103.22v8.52h12.2l2.51,14.62H103.22V122.3h18.3v14.08Z" transform="translate(-18.55 -14.63)"/><path class="cls-1" d="M156.23,136.38l-13.45-29.51v29.51H126.54V74.49h17.4l11.4,27.27V74.49h16.23v61.89Z" transform="translate(-18.55 -14.63)"/><path class="cls-1" d="M205.84,89.56v46.82H188.08V89.56H175.61V74.49h41.17l2.33,15.07Z" transform="translate(-18.55 -14.63)"/><path class="cls-1" d="M244,137.55c-16.24,0-24.58-11.84-24.58-32s8.53-32.2,24.76-32.2c16.06,0,24.4,11.84,24.4,32S260,137.55,244,137.55Zm.09-50.5c-4.93,0-6.55,6.45-6.55,18.39s1.71,18.38,6.55,18.38c4.67,0,6.37-6.46,6.37-18.38S248.63,87.05,244.05,87.05Z" transform="translate(-18.55 -14.63)"/><path class="cls-1" d="M291.41,116.65h-.72v19.73h-17V74.49h17.76c14.08,0,23.6,6.19,23.6,20.18,0,7.8-3.33,12.83-8.35,16.42l11.13,23.5L300.2,137Zm-.8-12c4.75,0,7.89-1.89,7.89-8.53,0-6.27-3.14-8.25-7.89-8.25h-.19v16.78Z" transform="translate(-18.55 -14.63)"/><path class="cls-1" d="M338.68,137.1a48,48,0,0,1-20.09-4.22l2.24-14.62c6.37,3,11.3,4.76,15.7,4.76,3.32,0,4.84-1.44,4.84-3.5,0-2.78-2-4.49-8.88-8.53-6.19-3.58-13.09-9.32-13.09-18.3,0-11.66,8-18.92,19.91-18.92A39.19,39.19,0,0,1,355.82,77l-2.25,14.71c-5.11-2.87-9.24-3.86-12.64-3.86-2.07,0-3.86,1.26-3.86,3,0,2.07,1.61,3.5,8.25,7.36,6.37,3.67,13.81,9.69,13.81,19.55C359.13,130.37,350.79,137.1,338.68,137.1Z" transform="translate(-18.55 -14.63)"/><path class="cls-1" d="M369.81,101.49l-9.33-2,1.34-25h17.85Z" transform="translate(-18.55 -14.63)"/><path class="cls-1" d="M416.54,136.38H398.78V74.49h17.76c19.92,0,29.24,10,29.24,30.85C445.78,126.42,436.1,136.38,416.54,136.38Zm.18-48.26h-.18v34.54h.18c6.1,0,10.94-2.7,10.94-17.22S422.82,88.12,416.72,88.12Z" transform="translate(-18.55 -14.63)"/><path class="cls-1" d="M479,136.83,477,126H465.07l-2,10.4h-17.4L461,74.4h21.71l14.62,59.74Zm-7.8-43-3.5,18.75h6.91Z" transform="translate(-18.55 -14.63)"/><path class="cls-1" d="M525,115.12v21.26H507.23V115.57L491,76.28l19.37-2.42,6.82,22.43,6.46-21.8h18.56Z" transform="translate(-18.55 -14.63)"/><path class="cls-2" d="M525,154.15a46.48,46.48,0,0,1-46.28,42H390.24a46.58,46.58,0,0,1-46.29-42h17.91a28.78,28.78,0,0,0,28.38,24.25h88.47a28.71,28.71,0,0,0,28.38-24.25Z" transform="translate(-18.55 -14.63)"/><path class="cls-2" d="M489.67,14.71V32.47H390.24a28.78,28.78,0,0,0-28.38,24.25H344a46.57,46.57,0,0,1,46.29-42Z" transform="translate(-18.55 -14.63)"/><path class="cls-3" d="M506.69,14.63v31h84v-31Zm8.08,27.7V18h6v19.1h7.47l.81,5.22Zm23.37,0h-6V18h6Zm17.69.14h-6.49L541,18.75l6.44-1,5.54,17.05L558.19,18h6.27Zm26.74-.14H567.1V18h15.16v4.87H573v4.58h7.05l.78,4.83H573v5.14h9.55Z" transform="translate(-18.55 -14.63)"/><polygon class="cls-2" points="149.14 24.67 140.7 41.91 138.32 41.91 129.47 24.67 134.02 24.67 140.38 37.89 146.48 24.67 149.14 24.67"/><path class="cls-2" d="M94.07,47.55c0-3.72-2.52-6.47-8.33-6.51-1.52,0-2.46,0-3.29.08V52.63c0,1.75.8,2.1,3.52,2.1C90.62,54.73,94.07,51.76,94.07,47.55Zm4-.18c0,4.76-4,9-12,9H78.55V39.3h8.59C94.89,39.3,98.09,43.51,98.09,47.37Z" transform="translate(-18.55 -14.63)"/><path class="cls-2" d="M44.33,45.05c0-2-2.18-4.38-5.64-4.38-3.72,0-5.71,2.81-6,5.74H41.9C43.72,46.41,44.33,45.89,44.33,45.05Zm4,1.56c0,1.08-.46,1.47-1.52,1.47H32.66c.37,4.39,3.92,6.69,8,6.69a17.8,17.8,0,0,0,6.86-1.43l.63,1.49a21.73,21.73,0,0,1-9.24,1.88c-5.08,0-10.13-2.59-10.32-8.63H20.79l.81-1.67h7.1c.77-4.64,5.52-7.47,10-7.47C45.77,38.94,48.28,44,48.28,46.61Z" transform="translate(-18.55 -14.63)"/><path class="cls-2" d="M187.63,47.83c0-4.17-2.66-7.21-6.92-7.21a6.75,6.75,0,0,0-6.87,6.94c0,4.42,2.76,7.46,7,7.46C184.41,55,187.63,52.5,187.63,47.83Zm3.91,0c0,5.62-5.46,8.89-10.8,8.89s-10.8-3.27-10.8-8.89,5.46-8.89,10.8-8.89S191.54,42.2,191.54,47.83Z" transform="translate(-18.55 -14.63)"/><polygon class="cls-2" points="53.79 41.72 51.26 41.72 37.79 28.86 37.79 41.72 35.3 41.72 35.3 24.67 39.03 24.67 51.3 36.51 51.3 24.67 53.79 24.67 53.79 41.72"/><path class="cls-2" d="M140.51,47v3.64c0,2.61-2.56,4.07-5.66,4.07-2.55,0-4.09-1.07-4.09-3.22,0-3.72,6.49-4.49,9.6-4.49Zm-.37-1.42c-6.45,0-13.34,1.84-13.34,6.11,0,2.73,2.09,5,6,5a16.23,16.23,0,0,0,7.67-2.07v1.73h3.9V46.18c0-5.49-3.13-7.24-7.86-7.24a21.3,21.3,0,0,0-8.7,1.74l.64,1.67a16.22,16.22,0,0,1,6.61-1.66c3.91,0,5.41,2.24,5.41,4.93Z" transform="translate(-18.55 -14.63)"/><path class="cls-2" d="M200.31,47.86V41c.85-.06,1.63-.1,2.39-.1,3.55,0,5,1.18,5,3.43,0,2.72-2.65,3.57-6.61,3.57Zm-3.89-8.56V56.35h3.89V49.49c.75,0,1.18,0,2.07,0,4,4,7.37,6.63,13.83,7.16l.57-1.1c-4.69-1.27-8.24-4.6-10.36-6.82,2.59-.56,5.19-1.89,5.19-5,0-2.3-2-4.41-8-4.41Z" transform="translate(-18.55 -14.63)"/><path class="cls-2" d="M118,45.05c0-2-2.18-4.38-5.63-4.38-3.73,0-5.72,2.81-6,5.74h9.24C117.37,46.41,118,45.89,118,45.05Zm-15.73,2.58c0-5,4.83-8.69,10.07-8.69,7.11,0,9.62,5,9.62,7.67,0,1.08-.46,1.47-1.52,1.47H106.31c.38,4.39,3.92,6.69,8,6.69a17.81,17.81,0,0,0,6.87-1.43l.63,1.49a21.77,21.77,0,0,1-9.25,1.88C107.08,56.71,102.25,53.67,102.25,47.63Z" transform="translate(-18.55 -14.63)"/></svg>